<svg width="154" height="154" viewBox="0 0 154 154" fill="none" xmlns="http://www.w3.org/2000/svg">
<g id="Layer 3">
<g id="ui design">
<path id="Ellipse 95" d="M77 153C118.974 153 153 118.974 153 77C153 35.0264 118.974 1 77 1C35.0264 1 1 35.0264 1 77C1 118.974 35.0264 153 77 153Z" fill="#CBE6D0" stroke="#CBE6D0" stroke-miterlimit="10"/>
<path id="Path 1299" d="M97.0179 78.9759L78.1395 49.3055C78.0435 49.1519 77.9179 49.0189 77.7701 48.9142C77.6223 48.8095 77.4552 48.7352 77.2784 48.6956C77.1017 48.656 76.9188 48.6519 76.7404 48.6836C76.5621 48.7152 76.3918 48.7819 76.2395 48.8799C76.074 48.9846 75.9338 49.1248 75.8291 49.2903L56.9811 78.9759C56.873 79.143 56.8045 79.3325 56.7808 79.5301C56.7571 79.7276 56.7788 79.928 56.8443 80.1159L64.3379 102.612H62.1643C61.8055 102.612 61.4614 102.754 61.2077 103.008C60.954 103.262 60.8115 103.606 60.8115 103.965V109.361C60.8115 109.72 60.954 110.064 61.2077 110.317C61.4614 110.571 61.8055 110.714 62.1643 110.714H63.5171V117.447C63.5171 117.806 63.6596 118.15 63.9133 118.404C64.167 118.657 64.5111 118.8 64.8699 118.8H89.1899C89.5486 118.8 89.8927 118.657 90.1464 118.404C90.4001 118.15 90.5427 117.806 90.5427 117.447V110.714H91.8955C92.2542 110.714 92.5983 110.571 92.852 110.317C93.1057 110.064 93.2483 109.72 93.2483 109.361V103.965C93.2483 103.606 93.1057 103.262 92.852 103.008C92.5983 102.754 92.2542 102.612 91.8955 102.612H89.6611L97.1547 80.1159C97.2201 79.928 97.2418 79.7276 97.2181 79.5301C97.1944 79.3325 97.1259 79.143 97.0179 78.9759ZM77.0451 82.3199C77.6672 82.3234 78.2688 82.5423 78.7477 82.9395C79.2265 83.3366 79.5529 83.8874 79.6713 84.4982C79.7898 85.1089 79.6929 85.7418 79.3971 86.2892C79.1014 86.8365 78.6252 87.2644 78.0494 87.5001C77.4737 87.7358 76.8341 87.7647 76.2394 87.5819C75.6448 87.399 75.1319 87.0158 74.788 86.4973C74.4442 85.9789 74.2906 85.3573 74.3535 84.7383C74.4164 84.1194 74.6918 83.5414 75.1329 83.1027C75.6416 82.5991 76.3292 82.3176 77.0451 82.3199ZM87.7915 116.11H66.2075V110.714H87.7915V116.11ZM90.4819 105.318V108.008H63.5171V105.318H90.4819ZM86.8795 102.612H67.1195L59.5195 79.8119L75.6467 54.6559V79.8727C74.3714 80.202 73.2601 80.985 72.5209 82.0751C71.7817 83.1651 71.4654 84.4874 71.6314 85.7939C71.7973 87.1005 72.4341 88.3017 73.4223 89.1723C74.4106 90.0429 75.6824 90.5233 76.9995 90.5233C78.3165 90.5233 79.5884 90.0429 80.5766 89.1723C81.5648 88.3017 82.2016 87.1005 82.3675 85.7939C82.5335 84.4874 82.2172 83.1651 81.478 82.0751C80.7389 80.985 79.6275 80.202 78.3523 79.8727V54.6559L94.3883 79.8727L86.8795 102.612Z" fill="#2C5C34"/>
<path id="Path 1300" d="M117.447 35.2H109.361C109.002 35.2 108.658 35.3425 108.404 35.5962C108.151 35.8499 108.008 36.194 108.008 36.5528V39.2432H82.3962V36.5528C82.3962 36.194 82.2537 35.8499 82 35.5962C81.7463 35.3425 81.4022 35.2 81.0434 35.2H72.957C72.5982 35.2 72.2541 35.3425 72.0004 35.5962C71.7467 35.8499 71.6042 36.194 71.6042 36.5528V39.2432H45.9922V36.5528C45.9922 36.194 45.8497 35.8499 45.596 35.5962C45.3423 35.3425 44.9982 35.2 44.6394 35.2H36.553C36.1942 35.2 35.8501 35.3425 35.5964 35.5962C35.3427 35.8499 35.2002 36.194 35.2002 36.5528V44.6392C35.2002 44.998 35.3427 45.3421 35.5964 45.5958C35.8501 45.8495 36.1942 45.992 36.553 45.992H44.6394C44.9982 45.992 45.3423 45.8495 45.596 45.5958C45.8497 45.3421 45.9922 44.998 45.9922 44.6392V41.9488H62.2714C58.4781 43.3945 54.9728 45.5048 51.9202 48.1808C49.2809 50.398 47.1454 53.1531 45.6565 56.262C44.1676 59.3708 43.3596 62.7618 43.2866 66.208H41.949C41.5902 66.208 41.2461 66.3505 40.9924 66.6042C40.7387 66.8579 40.5962 67.202 40.5962 67.5608V72.9568C40.5962 73.3156 40.7387 73.6597 40.9924 73.9134C41.2461 74.1671 41.5902 74.3096 41.949 74.3096H47.3602C47.719 74.3096 48.0631 74.1671 48.3168 73.9134C48.5705 73.6597 48.713 73.3156 48.713 72.9568V67.5608C48.713 67.202 48.5705 66.8579 48.3168 66.6042C48.0631 66.3505 47.719 66.208 47.3602 66.208H45.9922C45.9922 54.3976 56.9058 44.32 71.6802 42.3136V44.6392C71.6802 44.998 71.8227 45.3421 72.0764 45.5958C72.3301 45.8495 72.6742 45.992 73.033 45.992H81.1194C81.4782 45.992 81.8223 45.8495 82.076 45.5958C82.3297 45.3421 82.4722 44.998 82.4722 44.6392V42.3136C97.0946 44.32 108.008 54.3976 108.008 66.208H106.64C106.281 66.208 105.937 66.3505 105.684 66.6042C105.43 66.8579 105.287 67.202 105.287 67.5608V72.9568C105.287 73.3156 105.43 73.6597 105.684 73.9134C105.937 74.1671 106.281 74.3096 106.64 74.3096H112.021C112.38 74.3096 112.724 74.1671 112.978 73.9134C113.231 73.6597 113.374 73.3156 113.374 72.9568V67.5608C113.374 67.202 113.231 66.8579 112.978 66.6042C112.724 66.3505 112.38 66.208 112.021 66.208H110.683C110.614 62.7641 109.811 59.3747 108.327 56.2659C106.844 53.1572 104.714 50.4008 102.08 48.1808C99.023 45.5033 95.5125 43.3929 91.7138 41.9488H108.008V44.6392C108.008 44.998 108.151 45.3421 108.404 45.5958C108.658 45.8495 109.002 45.992 109.361 45.992H117.447C117.806 45.992 118.15 45.8495 118.404 45.5958C118.658 45.3421 118.8 44.998 118.8 44.6392V36.5528C118.8 36.194 118.658 35.8499 118.404 35.5962C118.15 35.3425 117.806 35.2 117.447 35.2ZM43.2866 43.2864H37.8906V37.8904H43.2866V43.2864ZM45.9922 71.68H43.2866V68.9136H45.9922V71.68ZM79.6906 43.2864H74.3098V37.8904H79.6906V43.2864ZM110.714 71.68H108.008V68.9136H110.714V71.68ZM116.11 43.3624H110.714V37.8904H116.11V43.3624Z" fill="#2C5C34"/>
</g>
</g>
</svg>
