<svg width="30" height="38" viewBox="0 0 30 38" fill="none" xmlns="http://www.w3.org/2000/svg">
<path d="M7.96065 0.202266C9.03582 -0.111156 10.1896 -0.0590858 11.2299 0.349808C12.2702 0.758701 13.1343 1.49975 13.6783 2.44959L13.8626 2.80356L15.4867 6.29809C15.9804 7.35876 16.1406 8.53634 15.9475 9.68437C15.7544 10.8324 15.2165 11.9002 14.4007 12.755L14.0763 13.0686L11.5111 15.38C11.0492 15.8029 11.3957 17.4397 13.0689 20.2382C14.5702 22.7563 15.7963 23.9323 16.3958 23.9964H16.5015L16.6317 23.9726L21.6687 22.4831C22.3457 22.2824 23.0681 22.2745 23.7496 22.4602C24.4311 22.646 25.0428 23.0177 25.5116 23.5308L25.7377 23.804L29.0695 28.2701C29.7233 29.1453 30.0493 30.2096 29.9939 31.2878C29.9386 32.366 29.5051 33.3938 28.7648 34.202L28.465 34.5014L27.1308 35.7224C25.935 36.8174 24.439 37.5573 22.8209 37.8542C21.2027 38.1511 19.5304 37.9925 18.0028 37.3972C13.2483 35.5442 8.92874 31.3109 5.00477 24.74C1.07343 18.1524 -0.560536 12.4105 0.169219 7.49302C0.390261 6.00625 1.02374 4.60514 2.00235 3.43855C2.98095 2.27195 4.26814 1.38345 5.72715 0.867437L6.20137 0.715398L7.96065 0.202266Z" fill="white"/>
</svg>
