<svg width="49" height="38" viewBox="0 0 49 38" fill="none" xmlns="http://www.w3.org/2000/svg">
<path d="M1.55356e-08 10.8173L23.7294 22.515C23.9674 22.6323 24.2317 22.6936 24.5 22.6936C24.7683 22.6936 25.0326 22.6323 25.2706 22.515L49 10.8194V31.1389C49.0001 32.8914 48.2927 34.5775 47.0229 35.8514C45.7531 37.1252 44.0172 37.8902 42.1712 37.9894L41.7614 38H7.23864C5.38969 38.0001 3.61079 37.3296 2.26685 36.126C0.922908 34.9224 0.115815 33.277 0.0111366 31.5273L1.55356e-08 31.1389V10.8173ZM7.23864 1.47254e-08H41.7614C43.6103 -0.000114732 45.3892 0.670392 46.7332 1.87397C48.0771 3.07755 48.8842 4.72296 48.9889 6.47267L49 6.86111V7.24956L24.5 19.3251L1.55356e-08 7.24956V6.86111C-0.000121045 5.1086 0.70728 3.42247 1.97709 2.14862C3.24689 0.874775 4.98284 0.109775 6.82882 0.0105558L7.23864 1.47254e-08H41.7614H7.23864Z" fill="white"/>
</svg>
