<svg width="154" height="154" viewBox="0 0 154 154" fill="none" xmlns="http://www.w3.org/2000/svg">
<g id="hosting">
<path id="Ellipse 94" d="M77 153C118.974 153 153 118.974 153 77C153 35.0264 118.974 1 77 1C35.0264 1 1 35.0264 1 77C1 118.974 35.0264 153 77 153Z" fill="#E9AFAF" stroke="#E9AFAF" stroke-miterlimit="10"/>
<path id="Path 1289" d="M118.801 110.744C118.509 109.619 117.853 108.622 116.934 107.911C116.015 107.2 114.886 106.814 113.724 106.814C112.562 106.814 111.432 107.2 110.514 107.911C109.595 108.622 108.938 109.619 108.647 110.744H84.7069C84.4746 109.842 84.0055 109.018 83.3481 108.358C82.6908 107.698 81.869 107.226 80.9678 106.99V98.9488H112.417C114.153 98.9448 115.817 98.2533 117.045 97.0256C118.272 95.7979 118.964 94.1339 118.968 92.3976V84.524C118.966 83.5027 118.724 82.496 118.262 81.5852C117.8 80.6743 117.131 79.8847 116.308 79.28C117.133 78.6779 117.805 77.8888 118.267 76.9774C118.73 76.0659 118.97 75.058 118.968 74.036V66.1776C118.966 65.1563 118.724 64.1496 118.262 63.2388C117.8 62.3279 117.131 61.5383 116.308 60.9336C117.133 60.3315 117.805 59.5424 118.267 58.631C118.73 57.7195 118.97 56.7116 118.968 55.6896V47.8312C118.968 46.0937 118.278 44.4274 117.049 43.1988C115.82 41.9702 114.154 41.28 112.417 41.28H46.8893C45.1519 41.28 43.4855 41.9702 42.257 43.1988C41.0284 44.4274 40.3381 46.0937 40.3381 47.8312V55.6896C40.3423 56.7105 40.5849 57.7164 41.0468 58.6268C41.5086 59.5373 42.1768 60.3272 42.9981 60.9336C42.1794 61.5425 41.5131 62.3329 41.0516 63.2429C40.59 64.1528 40.3458 65.1574 40.3381 66.1776V74.036C40.3423 75.0569 40.5849 76.0628 41.0468 76.9732C41.5086 77.8837 42.1768 78.6736 42.9981 79.28C42.1794 79.8889 41.5131 80.6793 41.0516 81.5893C40.59 82.4992 40.3458 83.5038 40.3381 84.524V92.3976C40.3422 94.1339 41.0337 95.7979 42.2614 97.0256C43.4891 98.2533 45.1531 98.9448 46.8893 98.9488H78.3533V106.99C77.4515 107.228 76.6288 107.7 75.9693 108.36C75.3097 109.02 74.8369 109.842 74.5989 110.744H50.6437C50.3255 109.508 49.5671 108.43 48.5109 107.713C47.4546 106.996 46.173 106.688 44.9065 106.849C43.6399 107.009 42.4753 107.626 41.6312 108.584C40.787 109.542 40.3213 110.775 40.3213 112.051C40.3213 113.328 40.787 114.561 41.6312 115.519C42.4753 116.476 43.6399 117.093 44.9065 117.254C46.173 117.414 47.4546 117.107 48.5109 116.39C49.5671 115.673 50.3255 114.595 50.6437 113.358H74.5989C74.8838 114.483 75.5354 115.48 76.4508 116.193C77.3662 116.905 78.493 117.292 79.6529 117.292C80.8129 117.292 81.9397 116.905 82.8551 116.193C83.7705 115.48 84.4221 114.483 84.7069 113.358H108.677C108.802 114.071 109.074 114.75 109.474 115.353C109.874 115.955 110.395 116.469 111.003 116.86C111.611 117.252 112.294 117.514 113.008 117.629C113.723 117.744 114.453 117.71 115.154 117.529C115.854 117.348 116.51 117.024 117.079 116.578C117.648 116.131 118.119 115.572 118.461 114.934C118.804 114.297 119.011 113.596 119.069 112.875C119.128 112.154 119.036 111.428 118.801 110.744ZM45.6581 114.681C45.0536 114.677 44.4691 114.464 44.004 114.078C43.5389 113.692 43.222 113.156 43.1073 112.563C42.9925 111.969 43.087 111.354 43.3746 110.823C43.6623 110.291 44.1252 109.875 44.6848 109.647C45.2444 109.418 45.8659 109.39 46.4436 109.568C47.0214 109.746 47.5196 110.118 47.8535 110.622C48.1874 111.126 48.3364 111.73 48.2751 112.332C48.2137 112.933 47.9459 113.495 47.5171 113.921C47.2726 114.164 46.9825 114.356 46.6635 114.486C46.3445 114.617 46.0028 114.683 45.6581 114.681ZM42.9677 55.6896V47.8312C42.9657 47.315 43.0657 46.8034 43.2619 46.3258C43.4581 45.8483 43.7466 45.4142 44.111 45.0484C44.4753 44.6826 44.9083 44.3924 45.3851 44.1944C45.8619 43.9964 46.3731 43.8944 46.8893 43.8944H112.417C113.461 43.8944 114.462 44.3092 115.2 45.0475C115.939 45.7858 116.353 46.7871 116.353 47.8312V55.6896C116.353 56.7337 115.939 57.7351 115.2 58.4734C114.462 59.2117 113.461 59.6264 112.417 59.6264H46.8893C46.3731 59.6264 45.8619 59.5245 45.3851 59.3265C44.9083 59.1284 44.4753 58.8382 44.111 58.4725C43.7466 58.1067 43.4581 57.6726 43.2619 57.195C43.0657 56.7175 42.9657 56.2059 42.9677 55.6896ZM42.9677 74.036V66.1776C42.9657 65.6621 43.0658 65.1512 43.2622 64.6745C43.4585 64.1978 43.7473 63.7647 44.1119 63.4002C44.4764 63.0356 44.9095 62.7468 45.3862 62.5505C45.8629 62.3541 46.3738 62.254 46.8893 62.256H112.417C112.933 62.254 113.444 62.354 113.922 62.5502C114.399 62.7464 114.834 63.0349 115.199 63.3993C115.565 63.7636 115.855 64.1966 116.053 64.6734C116.251 65.1502 116.353 65.6614 116.353 66.1776V74.036C116.353 75.0801 115.939 76.0815 115.2 76.8198C114.462 77.5581 113.461 77.9728 112.417 77.9728H46.8893C46.3731 77.9728 45.8619 77.8709 45.3851 77.6729C44.9083 77.4748 44.4753 77.1846 44.111 76.8189C43.7466 76.4531 43.4581 76.019 43.2619 75.5414C43.0657 75.0639 42.9657 74.5523 42.9677 74.036ZM42.9677 92.3976V84.524C42.9657 84.0085 43.0658 83.4976 43.2622 83.0209C43.4585 82.5442 43.7473 82.1111 44.1119 81.7466C44.4764 81.382 44.9095 81.0932 45.3862 80.8969C45.8629 80.7005 46.3738 80.6004 46.8893 80.6024H112.417C112.933 80.6004 113.444 80.7004 113.922 80.8966C114.399 81.0928 114.834 81.3813 115.199 81.7457C115.565 82.11 115.855 82.543 116.053 83.0198C116.251 83.4966 116.353 84.0078 116.353 84.524V92.3976C116.349 93.4391 115.933 94.4365 115.195 95.1715C114.457 95.9066 113.458 96.3192 112.417 96.3192H46.8893C45.8493 96.3192 44.8518 95.9061 44.1164 95.1706C43.3809 94.4352 42.9677 93.4377 42.9677 92.3976ZM79.7365 114.681C79.2182 114.687 78.7098 114.539 78.2759 114.255C77.842 113.972 77.5021 113.565 77.2996 113.088C77.097 112.611 77.0409 112.084 77.1383 111.575C77.2358 111.066 77.4823 110.597 77.8467 110.229C78.2111 109.86 78.6769 109.608 79.1848 109.505C79.6928 109.401 80.22 109.451 80.6995 109.648C81.179 109.845 81.5891 110.18 81.8777 110.611C82.1664 111.041 82.3205 111.548 82.3205 112.066C82.3206 112.755 82.0493 113.415 81.5656 113.904C81.0818 114.394 80.4246 114.673 79.7365 114.681ZM113.815 114.681C113.298 114.681 112.792 114.528 112.362 114.24C111.933 113.953 111.597 113.545 111.4 113.067C111.202 112.589 111.15 112.064 111.251 111.556C111.352 111.049 111.601 110.583 111.966 110.218C112.332 109.852 112.798 109.603 113.305 109.502C113.812 109.401 114.338 109.453 114.815 109.651C115.293 109.849 115.701 110.184 115.989 110.614C116.276 111.044 116.429 111.549 116.429 112.066C116.429 112.76 116.154 113.425 115.664 113.915C115.173 114.405 114.508 114.681 113.815 114.681Z" fill="#952928"/>
<path id="Path 1290" d="M56.0699 47.8313H49.5187C49.172 47.8313 48.8395 47.969 48.5944 48.2142C48.3492 48.4593 48.2115 48.7918 48.2115 49.1385V54.3825C48.2095 54.5547 48.2419 54.7256 48.3069 54.8851C48.3718 55.0447 48.4681 55.1896 48.5898 55.3114C48.7116 55.4332 48.8566 55.5294 49.0161 55.5943C49.1756 55.6593 49.3465 55.6917 49.5187 55.6897H56.0699C56.4166 55.6897 56.7491 55.552 56.9942 55.3068C57.2394 55.0617 57.3771 54.7292 57.3771 54.3825V49.1385C57.3732 48.793 57.2342 48.4628 56.9899 48.2185C56.7456 47.9742 56.4154 47.8352 56.0699 47.8313ZM54.7627 53.0753H50.8259V50.4001H54.7627V53.0753Z" fill="#952928"/>
<path id="Path 1291" d="M56.0699 66.1776H49.5187C49.172 66.1776 48.8395 66.3153 48.5944 66.5605C48.3492 66.8056 48.2115 67.1381 48.2115 67.4848V72.7288C48.2095 72.901 48.2419 73.0719 48.3069 73.2315C48.3718 73.391 48.4681 73.5359 48.5898 73.6577C48.7116 73.7795 48.8566 73.8757 49.0161 73.9407C49.1756 74.0056 49.3465 74.038 49.5187 74.036H56.0699C56.4166 74.036 56.7491 73.8983 56.9942 73.6531C57.2394 73.408 57.3771 73.0755 57.3771 72.7288V67.4848C57.3732 67.1393 57.2342 66.8091 56.9899 66.5648C56.7456 66.3206 56.4154 66.1816 56.0699 66.1776ZM54.7627 71.4216H50.8259V68.8072H54.7627V71.4216Z" fill="#952928"/>
<path id="Path 1292" d="M56.0699 84.5239H49.5187C49.172 84.5239 48.8395 84.6616 48.5944 84.9068C48.3492 85.1519 48.2115 85.4844 48.2115 85.8311V91.0751C48.2095 91.2481 48.2418 91.4197 48.3066 91.58C48.3714 91.7404 48.4674 91.8863 48.589 92.0093C48.7106 92.1323 48.8553 92.2299 49.0149 92.2966C49.1745 92.3632 49.3458 92.3975 49.5187 92.3975H56.0699C56.418 92.3935 56.7505 92.2524 56.9952 92.0049C57.2399 91.7573 57.3771 91.4232 57.3771 91.0751V85.8311C57.3732 85.4857 57.2342 85.1555 56.9899 84.9112C56.7456 84.6669 56.4154 84.5279 56.0699 84.5239ZM54.7627 89.7679H50.8259V87.1535H54.7627V89.7679Z" fill="#952928"/>
<path id="Path 1293" d="M109.878 46.5241H96.8208C96.5022 46.5194 96.1925 46.6286 95.9472 46.832C95.702 47.0355 95.5375 47.3197 95.4832 47.6337C95.4495 47.8214 95.4578 48.0142 95.5075 48.1983C95.5571 48.3824 95.647 48.5533 95.7705 48.6986C95.894 48.8439 96.0481 48.9601 96.2218 49.0387C96.3955 49.1174 96.5845 49.1567 96.7752 49.1537H109.832C110.179 49.1537 110.511 49.0159 110.756 48.7708C111.001 48.5257 111.139 48.1932 111.139 47.8465C111.139 47.4998 111.001 47.1673 110.756 46.9221C110.511 46.677 110.179 46.5393 109.832 46.5393L109.878 46.5241Z" fill="#952928"/>
<path id="Path 1294" d="M109.878 51.7679H96.8209C96.4742 51.7679 96.1417 51.9057 95.8965 52.1508C95.6514 52.396 95.5137 52.7284 95.5137 53.0751C95.5137 53.4218 95.6514 53.7543 95.8965 53.9995C96.1417 54.2446 96.4742 54.3823 96.8209 54.3823H109.832C110.151 54.3902 110.463 54.2821 110.709 54.0781C110.955 53.8742 111.118 53.5881 111.17 53.2727C111.201 53.0862 111.191 52.895 111.14 52.7128C111.089 52.5305 110.999 52.3617 110.876 52.2182C110.752 52.0747 110.599 51.9599 110.427 51.8821C110.254 51.8043 110.067 51.7654 109.878 51.7679Z" fill="#952928"/>
<path id="Path 1295" d="M109.878 64.8704H96.8208C96.5022 64.8657 96.1925 64.9749 95.9472 65.1783C95.702 65.3818 95.5375 65.666 95.4832 65.98C95.4495 66.1677 95.4578 66.3605 95.5075 66.5446C95.5571 66.7288 95.647 66.8996 95.7705 67.0449C95.894 67.1902 96.0481 67.3064 96.2218 67.385C96.3955 67.4637 96.5845 67.503 96.7752 67.5H109.832C110.179 67.5 110.511 67.3623 110.756 67.1171C111.001 66.872 111.139 66.5395 111.139 66.1928C111.139 65.8461 111.001 65.5136 110.756 65.2684C110.511 65.0233 110.179 64.8856 109.832 64.8856L109.878 64.8704Z" fill="#952928"/>
<path id="Path 1296" d="M109.878 70.1601H96.8208C96.5014 70.1522 96.19 70.2603 95.9441 70.4643C95.6982 70.6683 95.5345 70.9543 95.4832 71.2697C95.4495 71.4574 95.4578 71.6502 95.5075 71.8343C95.5571 72.0184 95.647 72.1893 95.7705 72.3346C95.894 72.4799 96.0481 72.596 96.2218 72.6747C96.3955 72.7534 96.5845 72.7927 96.7752 72.7897H109.832C110.179 72.7897 110.511 72.6519 110.756 72.4068C111.001 72.1616 111.139 71.8292 111.139 71.4825C111.139 71.1358 111.001 70.8033 110.756 70.5581C110.511 70.313 110.179 70.1753 109.832 70.1753L109.878 70.1601Z" fill="#952928"/>
<path id="Path 1297" d="M109.878 83.2167H96.8208C96.5022 83.212 96.1925 83.3212 95.9472 83.5247C95.702 83.7281 95.5375 84.0123 95.4832 84.3263C95.4495 84.514 95.4578 84.7068 95.5075 84.8909C95.5571 85.0751 95.647 85.2459 95.7705 85.3912C95.894 85.5365 96.0481 85.6527 96.2218 85.7314C96.3955 85.81 96.5845 85.8493 96.7752 85.8463H109.832C110.179 85.8463 110.511 85.7086 110.756 85.4634C111.001 85.2183 111.139 84.8858 111.139 84.5391C111.139 84.1924 111.001 83.8599 110.756 83.6148C110.511 83.3696 110.179 83.2319 109.832 83.2319L109.878 83.2167Z" fill="#952928"/>
<path id="Path 1298" d="M109.878 88.3999H96.8208C96.5022 88.3953 96.1925 88.5045 95.9472 88.7079C95.702 88.9113 95.5375 89.1956 95.4832 89.5095C95.4495 89.6972 95.4578 89.8901 95.5075 90.0742C95.5571 90.2583 95.647 90.4291 95.7705 90.5744C95.894 90.7197 96.0481 90.8359 96.2218 90.9146C96.3955 90.9933 96.5845 91.0325 96.7752 91.0295H109.832C110.179 91.0295 110.511 90.8918 110.756 90.6467C111.001 90.4015 111.139 90.069 111.139 89.7223C111.139 89.3756 111.001 89.0431 110.756 88.798C110.511 88.5528 110.179 88.4151 109.832 88.4151L109.878 88.3999Z" fill="#952928"/>
</g>
</svg>
