<svg width="38" height="39" viewBox="0 0 38 39" fill="none" xmlns="http://www.w3.org/2000/svg">
<path d="M19 13.0021C15.5135 13.0021 12.6682 15.9222 12.6682 19.5005C12.6682 23.0787 15.5135 25.9989 19 25.9989C22.4865 25.9989 25.3317 23.0787 25.3317 19.5005C25.3317 15.9222 22.4865 13.0021 19 13.0021ZM37.9905 19.5005C37.9905 16.8095 38.0142 14.1429 37.867 11.4567C37.7197 8.33675 37.0262 5.56775 34.8032 3.28625C32.5755 0.999871 29.8822 0.292997 26.8422 0.141872C24.2202 -0.00925316 21.622 0.0151219 19.0047 0.0151219C16.3827 0.0151219 13.7845 -0.00925316 11.1672 0.141872C8.12724 0.292997 5.42924 1.00475 3.20624 3.28625C0.978491 5.57262 0.289741 8.33675 0.142491 11.4567C-0.00475908 14.1477 0.018991 16.8144 0.018991 19.5005C0.018991 22.1866 -0.00475908 24.8581 0.142491 27.5442C0.289741 30.6642 0.983241 33.4332 3.20624 35.7147C5.43399 38.0011 8.12724 38.708 11.1672 38.8591C13.7892 39.0102 16.3875 38.9859 19.0047 38.9859C21.6267 38.9859 24.225 39.0102 26.8422 38.8591C29.8822 38.708 32.5802 37.9962 34.8032 35.7147C37.031 33.4284 37.7197 30.6642 37.867 27.5442C38.019 24.8581 37.9905 22.1915 37.9905 19.5005ZM19 29.4991C13.6087 29.4991 9.25774 25.0336 9.25774 19.5005C9.25774 13.9674 13.6087 9.50187 19 9.50187C24.3912 9.50187 28.7422 13.9674 28.7422 19.5005C28.7422 25.0336 24.3912 29.4991 19 29.4991ZM29.1412 11.4275C27.8825 11.4275 26.866 10.3842 26.866 9.09237C26.866 7.8005 27.8825 6.75725 29.1412 6.75725C30.4 6.75725 31.4165 7.8005 31.4165 9.09237C31.4169 9.39913 31.3583 9.70296 31.2441 9.98644C31.1299 10.2699 30.9623 10.5275 30.7509 10.7444C30.5396 10.9613 30.2886 11.1333 30.0124 11.2505C29.7362 11.3677 29.4401 11.4279 29.1412 11.4275Z" fill="white"/>
</svg>
