<svg width="41" height="41" viewBox="0 0 41 41" fill="none" xmlns="http://www.w3.org/2000/svg">
<path d="M38.0038 0H2.99615C1.26154 0 0 1.26154 0 2.99615V38.0038C0 39.5808 1.41923 41 2.99615 41H38.0038C39.7385 41 41 39.7385 41 38.0038V2.99615C41 1.26154 39.5808 0 38.0038 0ZM12.6154 34.6923H6.30769V15.7692H12.6154V34.6923ZM9.46154 13.2462C7.41154 13.2462 5.67692 11.5115 5.67692 9.46154C5.67692 7.41154 7.41154 5.67692 9.46154 5.67692C11.5115 5.67692 13.2462 7.41154 13.2462 9.46154C13.2462 11.5115 11.5115 13.2462 9.46154 13.2462ZM34.6923 34.6923H28.3846V25.2308C28.3846 22.7077 27.7538 20.1846 25.2308 20.1846C22.7077 20.1846 22.0769 22.7077 22.0769 25.2308V34.6923H15.7692V15.7692H22.0769V17.9769H22.3923C23.1808 16.4 25.2308 15.1385 27.5962 15.1385C33.4308 15.1385 34.6923 18.9231 34.6923 23.6538V34.6923Z" fill="white"/>
</svg>
