<svg width="205" height="95" viewBox="0 0 205 95" fill="none" xmlns="http://www.w3.org/2000/svg">
<path d="M86.2003 80.526H38.5161L74.5552 0.675842H122.239L86.2003 80.526Z" fill="url(#paint0_linear)"/>
<path d="M36.2285 80.526H86.1323L50.0902 0.675842H0.189453L36.2285 80.526Z" fill="#3CBFF0"/>
<path d="M28.5342 22.9534V18.6307H52.7221V22.9534H42.8846V62.7802H38.3778V22.9534H28.5342Z" fill="white"/>
<path d="M55.876 18.6307H64.6682C69.5706 18.6307 72.8918 18.8357 74.6318 19.2456C77.141 19.7697 79.3997 21.1261 81.0415 23.0949C82.6811 25.0687 83.5009 27.4975 83.5009 30.3814C83.5481 32.6128 82.9595 34.8115 81.8039 36.7209C80.653 38.5644 78.9609 40.0075 76.9589 40.853C74.8603 41.7856 71.9592 42.2622 68.2558 42.2827L84.1157 62.7802H78.659L62.7837 42.2827H60.2875V62.7802H55.876V18.6307ZM60.2875 22.9534V37.9599L67.8931 38.0214C70.8382 38.0214 73.0168 37.7406 74.4289 37.179C75.7908 36.6623 76.9505 35.7213 77.7367 34.495C78.5285 33.2648 78.9411 31.8289 78.9234 30.366C78.9368 28.9303 78.518 27.5237 77.7214 26.3292C76.9649 25.1577 75.8625 24.2508 74.5672 23.7344C73.2637 23.2158 71.0995 22.9555 68.0745 22.9534H60.2875Z" fill="white"/>
<path d="M88.5947 18.6307H93.0062V62.7802H88.5947V18.6307Z" fill="white"/>
<path d="M100.021 49.0466C102.503 55.257 106.65 59.6258 112.463 62.153C118.275 64.6803 124.21 64.7346 130.269 62.316C136.27 59.9179 140.526 55.7971 143.039 49.9535C145.552 44.11 145.609 38.1855 143.211 32.18C140.783 26.0987 136.652 21.7944 130.819 19.2672C124.986 16.74 119.115 16.66 113.207 19.0274C109.357 20.5337 105.974 23.0291 103.397 26.2616C100.857 29.4127 99.2048 33.1848 98.6104 37.1882C98.0159 41.1915 98.5009 45.281 100.015 49.0343L100.021 49.0466ZM104.079 33.7818C102.865 36.8168 102.493 40.1237 103.003 43.3526C103.462 46.6153 104.79 49.6947 106.846 52.2686C108.962 54.8979 111.735 56.9207 114.885 58.1316C119.759 60.0808 124.548 60.0358 129.251 57.9963C131.51 57.0602 133.555 55.6725 135.259 53.9184C136.963 52.1643 138.292 50.0807 139.162 47.7952C140.428 44.7083 140.852 41.3412 140.392 38.0369C139.961 34.789 138.647 31.7219 136.592 29.1701C134.479 26.5526 131.714 24.5379 128.575 23.3286C125.499 22.0516 122.138 21.6196 118.839 22.0773C115.576 22.5455 112.5 23.8884 109.939 25.9634C107.326 28.0024 105.303 30.7011 104.079 33.7818Z" fill="#3AA9D7"/>
<path d="M147.383 18.6307H151.794V45.2833C151.794 48.4439 151.855 50.4146 151.976 51.1955C152.131 52.7528 152.659 54.25 153.513 55.5613C154.316 56.7337 155.546 57.7145 157.202 58.5036C158.762 59.2696 160.475 59.6742 162.213 59.6872C163.664 59.6921 165.099 59.3772 166.415 58.7649C167.718 58.1723 168.868 57.2888 169.775 56.1823C170.715 55.0073 171.391 53.6443 171.758 52.1855C172.055 51.0664 172.205 48.7657 172.207 45.2833V18.6307H176.619V45.2833C176.619 49.2248 176.233 52.411 175.463 54.8419C174.692 57.2727 173.155 59.389 170.851 61.1907C168.54 62.9902 165.743 63.89 162.462 63.89C158.902 63.89 155.851 63.0394 153.31 61.3382C150.861 59.7602 149.053 57.3628 148.21 54.5744C147.669 52.8527 147.398 49.7516 147.398 45.271L147.383 18.6307Z" fill="#3AA9D7"/>
<path d="M179.164 54.556L182.915 52.3055C185.556 57.1672 188.607 59.5981 192.067 59.5981C193.522 59.6052 194.956 59.249 196.238 58.562C197.47 57.9392 198.5 56.9797 199.208 55.795C199.877 54.6808 200.23 53.4053 200.229 52.1056C200.199 50.5327 199.674 49.0092 198.728 47.7522C197.347 45.7927 194.826 43.4356 191.166 40.6809C187.505 37.9261 185.215 35.9144 184.295 34.6457C182.783 32.7148 181.958 30.3344 181.952 27.8818C181.932 26.0392 182.409 24.2251 183.333 22.6306C184.257 21.0477 185.604 19.7533 187.222 18.8921C188.891 17.9819 190.765 17.5121 192.666 17.527C194.715 17.5155 196.73 18.0458 198.507 19.0643C200.317 20.0891 202.232 21.985 204.253 24.752L200.65 27.4852C198.996 25.2839 197.581 23.8338 196.404 23.1349C195.25 22.4385 193.925 22.0746 192.577 22.0834C190.798 22.0834 189.343 22.6235 188.211 23.7036C187.663 24.2126 187.228 24.8318 186.936 25.5206C186.643 26.2094 186.5 26.9523 186.515 27.7004C186.51 28.6641 186.71 29.6177 187.102 30.4982C187.651 31.6017 188.394 32.5981 189.294 33.4405C189.874 34 191.775 35.4707 194.996 37.8524C198.817 40.6747 201.437 43.1855 202.857 45.3848C204.277 47.5841 204.992 49.7957 205 52.0195C205 55.2231 203.784 58.0045 201.354 60.3636C200.188 61.5176 198.803 62.4257 197.28 63.0341C195.757 63.6425 194.127 63.9388 192.488 63.9054C189.897 63.93 187.358 63.1806 185.196 61.7533C183.013 60.3165 181.002 57.9174 179.164 54.556Z" fill="#3AA9D7"/>
<path d="M55.021 93.7494C98.0355 92.8844 141.049 92.8844 184.061 93.7494V93.9369C141.051 94.7957 98.0375 94.7957 55.021 93.9369V93.7494Z" fill="white"/>
<path d="M59.0549 93.8324C59.0549 93.9308 57.2503 93.9707 55.0215 93.9154L52.1717 93.8478L50.9912 93.8324L52.1717 93.814L55.0215 93.7463C57.2503 93.6941 59.0549 93.734 59.0549 93.8324Z" fill="#50C1EE"/>
<defs>
<linearGradient id="paint0_linear" x1="36.7669" y1="78.5153" x2="124.299" y2="2.42932" gradientUnits="userSpaceOnUse">
<stop offset="0.01" stop-color="#2C88A9"/>
<stop offset="0.16" stop-color="#298EB1"/>
<stop offset="0.28" stop-color="#2593B8"/>
<stop offset="0.34" stop-color="#1B9CC6"/>
<stop offset="0.46" stop-color="#0CABDC"/>
<stop offset="0.57" stop-color="#03B3E9"/>
<stop offset="0.68" stop-color="#00B6ED"/>
</linearGradient>
</defs>
</svg>
