<svg width="152" height="152" viewBox="0 0 152 152" fill="none" xmlns="http://www.w3.org/2000/svg">
<g id="mobile app dev">
<path id="Ellipse 90" d="M75.9998 151.24C117.554 151.24 151.24 117.554 151.24 76C151.24 34.4461 117.554 0.76001 75.9998 0.76001C34.4459 0.76001 0.759766 34.4461 0.759766 76C0.759766 117.554 34.4459 151.24 75.9998 151.24Z" fill="#C0C2F2"/>
<path id="Path 1266" d="M76 1.52C90.7308 1.52 105.131 5.88818 117.379 14.0721C129.627 22.2561 139.173 33.8883 144.811 47.4977C150.448 61.1072 151.923 76.0826 149.049 90.5303C146.175 104.978 139.082 118.249 128.665 128.665C118.249 139.082 104.978 146.175 90.5304 149.049C76.0827 151.923 61.1072 150.448 47.4978 144.811C33.8883 139.173 22.2561 129.627 14.0722 117.379C5.88821 105.131 1.52003 90.7308 1.52003 76C1.52003 56.2467 9.36701 37.3024 23.3347 23.3347C37.3024 9.36698 56.2467 1.52 76 1.52ZM76 0C60.9687 0 46.2748 4.45732 33.7767 12.8083C21.2786 21.1593 11.5374 33.0289 5.78519 46.9161C0.0329295 60.8032 -1.47212 76.0843 1.46035 90.8269C4.39283 105.569 11.6311 119.111 22.2599 129.74C32.8887 140.369 46.4306 147.607 61.1732 150.54C75.9157 153.472 91.1968 151.967 105.084 146.215C118.971 140.463 130.841 130.721 139.192 118.223C147.543 105.725 152 91.0314 152 76C152 55.8435 143.993 36.5126 129.74 22.2599C115.487 8.00712 96.1565 0 76 0V0Z" fill="#C0C2F2"/>
<path id="Path 1267" d="M72.8082 96.9304C72.4354 96.9378 72.073 96.808 71.7898 96.5656L54.1274 82.08C53.8998 81.9055 53.7262 81.6702 53.6267 81.4012C53.5272 81.1323 53.5058 80.8406 53.565 80.56L56.7722 58.0792C56.8127 57.795 56.9285 57.5267 57.1076 57.3022C57.2866 57.0777 57.5224 56.9052 57.7906 56.8024L78.6602 48.7768C78.9135 48.6804 79.1881 48.6536 79.4554 48.699C79.7226 48.7444 79.9729 48.8605 80.1802 49.0352L97.8426 63.4904C98.0729 63.6631 98.2495 63.8976 98.3517 64.1667C98.454 64.4358 98.4777 64.7284 98.4202 65.0104L95.2738 87.5216C95.2317 87.8053 95.1153 88.0729 94.9365 88.2971C94.7576 88.5214 94.5226 88.6943 94.2554 88.7984L73.3858 96.824C73.202 96.8967 73.0058 96.9328 72.8082 96.9304ZM56.8634 80.2104L73.1122 93.4952L92.2338 86.1384L95.1826 65.4816L78.9338 52.1968L59.8122 59.5536L56.8634 80.2104Z" fill="#151965"/>
<path id="Path 1268" d="M63.1866 79.268C62.8273 79.2647 62.4793 79.1413 62.1982 78.9175C61.917 78.6937 61.7187 78.3823 61.6348 78.0329C61.551 77.6835 61.5863 77.316 61.7353 76.989C61.8843 76.6619 62.1383 76.3941 62.457 76.228L74.541 70.148L76.061 58.1552C76.1134 57.7319 76.3318 57.3468 76.6682 57.0846C77.0046 56.8223 77.4313 56.7044 77.8546 56.7568C78.2779 56.8092 78.663 57.0276 78.9253 57.364C79.1875 57.7004 79.3054 58.1271 79.253 58.5504L77.6114 71.44C77.5795 71.7007 77.4836 71.9494 77.3325 72.1642C77.1814 72.379 76.9796 72.5531 76.745 72.6712L63.8402 79.04C63.6397 79.1588 63.4175 79.2364 63.1866 79.268Z" fill="#151965"/>
<path id="Path 1269" d="M87.2631 82.4752C86.8797 82.4761 86.5082 82.3415 86.2143 82.0952L74.9815 72.4584C74.659 72.1823 74.4594 71.7893 74.4267 71.366C74.3939 70.9427 74.5306 70.5237 74.8067 70.2012C75.0829 69.8787 75.4758 69.6791 75.8991 69.6463C76.3224 69.6135 76.7414 69.7503 77.0639 70.0264L88.3119 79.6632C88.5618 79.8756 88.7402 80.1598 88.8228 80.4772C88.9055 80.7946 88.8883 81.1297 88.7737 81.437C88.6591 81.7443 88.4526 82.0088 88.1823 82.1946C87.912 82.3803 87.5911 82.4783 87.2631 82.4752Z" fill="#151965"/>
<path id="Path 1270" d="M80.8183 37.4376H71.2879C70.8702 37.4426 70.4663 37.2882 70.1584 37.0058C69.8506 36.7234 69.662 36.3342 69.6311 35.9176C69.6167 35.7055 69.6448 35.4926 69.7138 35.2916C69.7828 35.0905 69.8913 34.9052 70.0329 34.7466C70.1745 34.588 70.3464 34.4593 70.5384 34.3681C70.7304 34.2768 70.9387 34.2248 71.1511 34.2152H80.6815C81.0992 34.2102 81.5031 34.3646 81.811 34.647C82.1188 34.9295 82.3074 35.3186 82.3383 35.7352C82.3527 35.9473 82.3246 36.1602 82.2556 36.3613C82.1866 36.5623 82.0781 36.7476 81.9365 36.9062C81.7949 37.0648 81.623 37.1935 81.431 37.2847C81.239 37.376 81.0307 37.428 80.8183 37.4376Z" fill="#151965"/>
<path id="Path 1271" d="M100.077 124.169H51.9233C50.648 124.165 49.4264 123.655 48.526 122.752C47.6257 121.849 47.1201 120.626 47.1201 119.35V103.36C47.1398 102.947 47.3186 102.559 47.6191 102.275C47.9196 101.992 48.3183 101.836 48.7313 101.84H103.269C103.682 101.836 104.081 101.992 104.381 102.275C104.682 102.559 104.86 102.947 104.88 103.36V119.381C104.876 120.652 104.368 121.87 103.468 122.767C102.568 123.665 101.348 124.169 100.077 124.169ZM50.3121 104.971V119.366C50.3354 119.777 50.5154 120.164 50.8151 120.446C51.1148 120.729 51.5113 120.886 51.9233 120.886H100.077C100.489 120.886 100.885 120.729 101.185 120.446C101.485 120.164 101.665 119.777 101.688 119.366V104.971H50.3121Z" fill="#151965"/>
<path id="Path 1272" d="M75.9999 119.411C74.7283 119.411 73.4852 119.034 72.4278 118.328C71.3705 117.621 70.5464 116.617 70.0597 115.442C69.5731 114.267 69.4458 112.974 69.6939 111.727C69.9419 110.48 70.5543 109.334 71.4535 108.435C72.3527 107.536 73.4983 106.924 74.7456 106.676C75.9928 106.427 77.2856 106.555 78.4604 107.041C79.6353 107.528 80.6394 108.352 81.3459 109.41C82.0524 110.467 82.4295 111.71 82.4295 112.982C82.4295 113.826 82.2632 114.662 81.9401 115.442C81.617 116.222 81.1434 116.931 80.5463 117.528C79.9493 118.125 79.2405 118.599 78.4604 118.922C77.6803 119.245 76.8443 119.411 75.9999 119.411ZM75.9999 109.774C75.3663 109.777 74.7477 109.968 74.2223 110.322C73.6968 110.677 73.2881 111.178 73.0477 111.765C72.8073 112.351 72.7459 112.995 72.8714 113.617C72.9969 114.238 73.3035 114.808 73.7527 115.255C74.2018 115.702 74.7733 116.006 75.395 116.128C76.0167 116.251 76.6608 116.186 77.2459 115.943C77.8311 115.7 78.3311 115.289 78.6828 114.762C79.0346 114.235 79.2223 113.615 79.2223 112.982C79.2223 112.559 79.1389 112.141 78.9767 111.751C78.8146 111.361 78.577 111.006 78.2776 110.708C77.9782 110.41 77.6228 110.174 77.2319 110.014C76.8411 109.854 76.4224 109.772 75.9999 109.774Z" fill="#151965"/>
<path id="Path 1273" d="M100.077 124.169H51.9233C50.648 124.165 49.4264 123.655 48.526 122.752C47.6257 121.849 47.1201 120.626 47.1201 119.35V32.7104C47.1201 31.4324 47.6278 30.2069 48.5314 29.3032C49.435 28.3996 50.6606 27.892 51.9385 27.892H100.062C101.329 27.8919 102.546 28.3912 103.448 29.2817C104.349 30.1722 104.864 31.3822 104.88 32.6496V119.29C104.888 119.926 104.77 120.558 104.532 121.149C104.295 121.739 103.942 122.277 103.496 122.731C103.049 123.184 102.517 123.545 101.93 123.792C101.343 124.039 100.714 124.167 100.077 124.169ZM50.3121 32.6496V119.366C50.3354 119.777 50.5154 120.164 50.8151 120.446C51.1148 120.729 51.5113 120.886 51.9233 120.886H100.077C100.489 120.886 100.885 120.729 101.185 120.446C101.485 120.164 101.665 119.777 101.688 119.366V32.7256C101.688 32.2983 101.518 31.8884 101.216 31.5863C100.914 31.2841 100.504 31.1144 100.077 31.1144H51.9233C51.5088 31.1139 51.1101 31.2732 50.8101 31.5591C50.51 31.845 50.3317 32.2356 50.3121 32.6496Z" fill="#151965"/>
</g>
</svg>
