<svg width="154" height="154" viewBox="0 0 154 154" fill="none" xmlns="http://www.w3.org/2000/svg">
<g id="Layer 1">
<g id="website redesign">
<path id="Ellipse 93" d="M77 153C118.974 153 153 118.974 153 77C153 35.0264 118.974 1 77 1C35.0264 1 1 35.0264 1 77C1 118.974 35.0264 153 77 153Z" fill="#B9E9F8" stroke="#B9E9F8" stroke-miterlimit="10"/>
<path id="Path 1285" d="M120.791 63.472H120.001V48.272C119.969 46.8123 119.368 45.4229 118.326 44.4005C117.283 43.378 115.883 42.8037 114.423 42.8H39.5777C38.1021 42.804 36.6878 43.391 35.6429 44.433C34.5981 45.475 34.0073 46.8876 33.9993 48.3632V73.0177H33.2089C32.4743 73.0157 31.7466 73.1584 31.0672 73.4376C30.3877 73.7169 29.77 74.1272 29.2492 74.6452C28.7283 75.1632 28.3146 75.7787 28.0317 76.4566C27.7487 77.1345 27.6021 77.8615 27.6001 78.596V105.667C27.6161 107.143 28.2146 108.552 29.2652 109.589C30.3157 110.625 31.7332 111.204 33.2089 111.2H47.5425C49.0181 111.196 50.4324 110.609 51.4773 109.567C52.5221 108.525 53.1129 107.112 53.1209 105.637V100.089H66.9985L66.2081 103.281H62.6665C62.2634 103.281 61.8768 103.441 61.5917 103.726C61.3066 104.011 61.1465 104.398 61.1465 104.801V109.68C61.1465 110.083 61.3066 110.47 61.5917 110.755C61.8768 111.04 62.2634 111.2 62.6665 111.2H91.3337C91.7368 111.2 92.1235 111.04 92.4085 110.755C92.6936 110.47 92.8537 110.083 92.8537 109.68V104.862C92.8537 104.459 92.6936 104.072 92.4085 103.787C92.1235 103.502 91.7368 103.342 91.3337 103.342H87.7921L87.0017 100.15H94.4801V105.728C94.5119 107.193 95.1174 108.587 96.1662 109.61C97.2151 110.634 98.6236 111.204 100.089 111.2H120.791C122.267 111.204 123.684 110.625 124.735 109.589C125.786 108.552 126.384 107.143 126.4 105.667V69.0352C126.392 67.5544 125.797 66.1371 124.746 65.0942C123.694 64.0514 122.272 63.468 120.791 63.472ZM49.9289 105.667C49.9289 106.3 49.6775 106.907 49.2299 107.355C48.7824 107.802 48.1754 108.054 47.5425 108.054H33.2089C32.576 108.054 31.969 107.802 31.5215 107.355C31.0739 106.907 30.8225 106.3 30.8225 105.667V78.596C30.8305 77.9684 31.0854 77.3692 31.5321 76.9282C31.9788 76.4872 32.5812 76.24 33.2089 76.24H34.4553L35.6865 79.9184C35.7813 80.2444 35.9824 80.5292 36.2579 80.7276C36.5334 80.9259 36.8673 81.0263 37.2065 81.0128H43.5601C43.8993 81.0263 44.2332 80.9259 44.5087 80.7276C44.7842 80.5292 44.9853 80.2444 45.0801 79.9184L46.2961 76.24H47.5425C48.1754 76.24 48.7824 76.4915 49.2299 76.939C49.6775 77.3865 49.9289 77.9935 49.9289 78.6264V105.667ZM37.7081 76.24H42.8001L42.2681 77.76H38.2401L37.7081 76.24ZM89.7377 106.488V108.084H64.2625V106.458L89.7377 106.488ZM69.3849 103.281L70.1753 100.089H83.6121L84.4177 103.281H69.3849ZM94.4801 96.912H53.1209V90.528H94.4801V96.912ZM94.4801 69.0352V87.3512H53.1209V78.596C53.1169 77.1178 52.5279 75.7012 51.4826 74.656C50.4373 73.6107 49.0208 73.0217 47.5425 73.0177H37.1913V48.3328C37.1913 47.6999 37.4427 47.0929 37.8903 46.6454C38.3378 46.1979 38.9448 45.9464 39.5777 45.9464H114.423C115.055 45.9464 115.662 46.1979 116.11 46.6454C116.557 47.0929 116.809 47.6999 116.809 48.3328V63.5328H100.089C98.6184 63.5287 97.2054 64.1037 96.1557 65.1335C95.106 66.1632 94.5041 67.565 94.4801 69.0352ZM112.872 66.6488L112.34 68.2449H108.312L107.78 66.6488H112.872ZM123.147 105.667C123.147 106.3 122.896 106.907 122.448 107.355C122.001 107.802 121.394 108.054 120.761 108.054H100.089C99.456 108.054 98.849 107.802 98.4015 107.355C97.9539 106.907 97.7025 106.3 97.7025 105.667V69.0352C97.7025 68.4023 97.9539 67.7953 98.4015 67.3478C98.849 66.9003 99.456 66.6488 100.089 66.6488H104.512L105.743 70.3424C105.841 70.6656 106.043 70.947 106.318 71.1424C106.594 71.3378 106.926 71.4361 107.263 71.4217H113.632C113.969 71.4361 114.302 71.3378 114.577 71.1424C114.852 70.947 115.055 70.6656 115.152 70.3424L116.383 66.6488H120.807C121.439 66.6488 122.046 66.9003 122.494 67.3478C122.941 67.7953 123.193 68.4023 123.193 69.0352L123.147 105.667Z" fill="#107EA3"/>
<path id="Path 1286" d="M113.526 103.281H107.203C106.816 103.278 106.44 103.413 106.142 103.66C105.845 103.908 105.644 104.253 105.576 104.634C105.531 104.857 105.536 105.088 105.591 105.309C105.647 105.53 105.752 105.736 105.898 105.911C106.044 106.086 106.227 106.226 106.435 106.321C106.642 106.416 106.868 106.462 107.096 106.458H113.48C113.865 106.461 114.239 106.328 114.536 106.084C114.833 105.839 115.035 105.498 115.107 105.12C115.156 104.89 115.152 104.652 115.095 104.424C115.037 104.197 114.927 103.985 114.774 103.807C114.621 103.629 114.428 103.489 114.212 103.397C113.995 103.306 113.76 103.266 113.526 103.281Z" fill="#107EA3"/>
<path id="Path 1287" d="M43.4535 103.281H37.1455C36.7568 103.272 36.378 103.404 36.0791 103.653C35.7802 103.902 35.5813 104.25 35.5191 104.634C35.4734 104.857 35.4786 105.088 35.5343 105.309C35.5899 105.53 35.6946 105.736 35.8406 105.911C35.9866 106.086 36.1701 106.226 36.3775 106.321C36.585 106.416 36.8111 106.462 37.0391 106.458H43.4079C43.7943 106.467 44.1712 106.337 44.4698 106.091C44.7684 105.846 44.9687 105.501 45.0343 105.12C45.0841 104.89 45.08 104.652 45.0222 104.424C44.9645 104.197 44.8547 103.985 44.7015 103.807C44.5483 103.629 44.3559 103.489 44.1393 103.397C43.9228 103.306 43.688 103.266 43.4535 103.281Z" fill="#107EA3"/>
<path id="Path 1288" d="M78.4894 92.1239H75.3582C74.9711 92.1215 74.5956 92.2559 74.298 92.5034C74.0004 92.751 73.7999 93.0957 73.7318 93.4767C73.6998 93.6991 73.7146 93.9258 73.7753 94.1421C73.8361 94.3584 73.9414 94.5597 74.0846 94.7329C74.2277 94.9061 74.4055 95.0474 74.6065 95.1478C74.8075 95.2483 75.0273 95.3055 75.2518 95.3159H78.383C78.7701 95.3184 79.1456 95.184 79.4432 94.9364C79.7408 94.6889 79.9413 94.3442 80.0094 93.9631C80.0414 93.7407 80.0266 93.5141 79.9658 93.2978C79.9051 93.0814 79.7998 92.8802 79.6566 92.707C79.5135 92.5338 79.3357 92.3924 79.1347 92.292C78.9336 92.1916 78.7139 92.1344 78.4894 92.1239Z" fill="#107EA3"/>
</g>
</g>
</svg>
