<svg width="154" height="154" viewBox="0 0 154 154" fill="none" xmlns="http://www.w3.org/2000/svg">
<g id="Layer 1">
<g id="seo">
<path id="Ellipse 91" d="M77 153C118.974 153 153 118.974 153 77C153 35.0264 118.974 1 77 1C35.0264 1 1 35.0264 1 77C1 118.974 35.0264 153 77 153Z" fill="#F9C4B8" stroke="#F9C4B8" stroke-miterlimit="10"/>
<path id="Path 1274" d="M74.9633 42.8001C69.2175 42.797 63.5998 44.4982 58.8209 47.6883C54.042 50.8784 50.3166 55.4142 48.1159 60.7219C45.9152 66.0296 45.3381 71.8707 46.4575 77.5064C47.577 83.1422 50.3427 88.3193 54.4049 92.383C58.467 96.4466 63.6431 99.2143 69.2785 100.336C74.9138 101.457 80.7551 100.882 86.0636 98.6835C91.3721 96.4847 95.9092 92.761 99.1011 87.9833C102.293 83.2056 103.996 77.5885 103.995 71.8427C103.994 64.1423 100.935 56.7575 95.4913 51.3115C90.0473 45.8656 82.6637 42.8041 74.9633 42.8001ZM74.9633 45.5209C79.172 45.5274 83.3174 46.5457 87.05 48.4901C90.7826 50.4344 93.993 53.2478 96.4105 56.6929L92.9601 60.1585C92.1243 59.6523 91.1685 59.3784 90.1915 59.3652C89.2145 59.3521 88.2517 59.6 87.4026 60.0834C86.5534 60.5669 85.8488 61.2683 85.3615 62.1152C84.8741 62.9621 84.6218 63.9238 84.6305 64.9009C84.628 65.8805 84.8793 66.8441 85.3601 67.6977L76.2401 76.7417C75.3979 76.2351 74.4337 75.9674 73.4509 75.9674C72.4681 75.9674 71.5039 76.2351 70.6617 76.7417L64.4905 70.4641C65.0062 69.6223 65.2797 68.6545 65.2809 67.6673C65.2896 66.3184 64.8039 65.0131 63.9157 63.9981C63.0274 62.983 61.7981 62.3285 60.46 62.1582C59.122 61.9879 57.7679 62.3136 56.6537 63.0738C55.5395 63.834 54.7423 64.9761 54.4129 66.2841H49.2905C50.5626 60.4167 53.8019 55.1605 58.4713 51.3868C63.1407 47.6131 68.9597 45.5488 74.9633 45.5361V45.5209ZM92.9601 64.9465C92.9601 65.4936 92.7978 66.0285 92.4939 66.4834C92.1899 66.9383 91.7578 67.2929 91.2523 67.5023C90.7469 67.7117 90.1906 67.7664 89.654 67.6597C89.1174 67.553 88.6244 67.2895 88.2376 66.9026C87.8507 66.5157 87.5872 66.0228 87.4804 65.4862C87.3737 64.9495 87.4285 64.3933 87.6379 63.8878C87.8473 63.3823 88.2018 62.9503 88.6568 62.6463C89.1117 62.3423 89.6465 62.1801 90.1937 62.1801C90.9274 62.1801 91.631 62.4715 92.1498 62.9903C92.6686 63.5091 92.9601 64.2128 92.9601 64.9465ZM76.3465 81.5449C76.3465 82.092 76.1842 82.6268 75.8803 83.0818C75.5763 83.5367 75.1442 83.8913 74.6387 84.1007C74.1333 84.3101 73.577 84.3648 73.0404 84.2581C72.5038 84.1514 72.0108 83.8879 71.624 83.501C71.2371 83.1141 70.9736 82.6212 70.8668 82.0846C70.7601 81.5479 70.8149 80.9917 71.0243 80.4862C71.2337 79.9807 71.5882 79.5487 72.0432 79.2447C72.4981 78.9407 73.0329 78.7785 73.5801 78.7785C74.3138 78.7785 75.0174 79.0699 75.5362 79.5887C76.055 80.1075 76.3465 80.8112 76.3465 81.5449ZM62.5601 67.7129C62.5601 68.26 62.3978 68.7948 62.0939 69.2498C61.7899 69.7047 61.3578 70.0593 60.8523 70.2687C60.3469 70.4781 59.7906 70.5328 59.254 70.4261C58.7174 70.3194 58.2244 70.0559 57.8376 69.669C57.4507 69.2821 57.1872 68.7892 57.0804 68.2525C56.9737 67.7159 57.0285 67.1597 57.2379 66.6542C57.4473 66.1487 57.8018 65.7167 58.2568 65.4127C58.7117 65.1087 59.2465 64.9465 59.7937 64.9465C60.5274 64.9465 61.231 65.2379 61.7498 65.7567C62.2686 66.2755 62.5601 66.9792 62.5601 67.7129ZM87.7313 94.7841C83.7326 97.0015 79.2249 98.138 74.6529 98.0814C70.0809 98.0248 65.6026 96.7771 61.6601 94.4613C57.7176 92.1455 54.447 88.8417 52.1712 84.8759C49.8953 80.9102 48.6929 76.4196 48.6825 71.8473C48.6801 70.9129 48.7308 69.9791 48.8345 69.0505H54.4129C54.7209 70.2332 55.4109 71.2811 56.3756 72.0315C57.3404 72.7818 58.5259 73.1926 59.7481 73.2001C60.7405 73.2017 61.7139 72.9281 62.5601 72.4097L68.8377 78.7024C68.3316 79.5476 68.0637 80.5141 68.0625 81.4992C68.0625 82.9666 68.6454 84.3739 69.683 85.4115C70.7206 86.4491 72.1279 87.032 73.5953 87.032C75.0627 87.032 76.47 86.4491 77.5076 85.4115C78.5452 84.3739 79.1281 82.9666 79.1281 81.4992C79.1142 80.5138 78.8417 79.5494 78.3377 78.7024L87.4577 69.5824C88.2941 70.0977 89.2569 70.3713 90.2393 70.3729C91.2139 70.3747 92.1717 70.1183 93.0151 69.6298C93.8584 69.1413 94.5574 68.4381 95.0408 67.5918C95.5242 66.7455 95.7748 65.7862 95.7671 64.8116C95.7593 63.837 95.4936 62.8818 94.9969 62.0433L98.0369 59.0033C99.7201 62.0268 100.789 65.3534 101.182 68.7916C101.575 72.2298 101.284 75.7117 100.326 79.0371C99.3683 82.3625 97.7625 85.4657 95.601 88.1681C93.4395 90.8706 90.765 93.119 87.7313 94.7841Z" fill="#EC411D"/>
<path id="Path 1275" d="M109.528 51.0688C110.752 51.0692 111.942 50.6614 112.908 49.9098C113.874 49.1582 114.563 48.1059 114.863 46.9192H123.36V44.1528H114.863C114.534 42.8448 113.737 41.7028 112.623 40.9426C111.508 40.1824 110.154 39.8567 108.816 40.0269C107.478 40.1972 106.249 40.8518 105.361 41.8669C104.472 42.8819 103.987 44.1872 103.995 45.536C104.009 46.5215 104.282 47.4859 104.786 48.3328L102.354 50.7648C98.2624 45.4366 92.7068 41.4162 86.3666 39.1952C80.0264 36.9742 73.1765 36.649 66.6544 38.2592C60.1323 39.8695 54.2208 43.3454 49.6428 48.262C45.0648 53.1786 42.0188 59.3227 40.8772 65.9429C39.7357 72.5631 40.548 79.3726 43.215 85.5384C45.882 91.7043 50.288 96.9593 55.8941 100.661C61.5003 104.362 68.0636 106.35 74.7815 106.381C81.4993 106.412 88.0806 104.484 93.7203 100.834L97.9003 104.998L99.8611 106.959L110.896 117.994C112.219 119.292 113.977 120.051 115.828 120.124C117.68 120.197 119.492 119.579 120.913 118.39C121.653 117.734 122.25 116.934 122.669 116.039C123.088 115.143 123.32 114.172 123.35 113.184C123.38 112.196 123.207 111.213 122.843 110.294C122.479 109.375 121.931 108.54 121.232 107.841L110.106 96.6992L108.16 94.7537L103.995 90.5737C107.619 84.989 109.548 78.4742 109.548 71.8168C109.548 65.1595 107.619 58.6447 103.995 53.06L106.762 50.2936C107.598 50.7952 108.553 51.0629 109.528 51.0688ZM109.528 42.8152C109.526 43.5527 109.232 44.2592 108.709 44.7796C108.187 45.3 107.479 45.5918 106.741 45.5908C106.004 45.5898 105.297 45.2961 104.776 44.7743C104.255 44.2524 103.962 43.5451 103.962 42.8076C103.962 42.0702 104.255 41.3629 104.776 40.841C105.297 40.3192 106.004 40.0255 106.741 40.0245C107.479 40.0235 108.187 40.3153 108.709 40.8357C109.232 41.3561 109.526 42.0626 109.528 42.8V42.8152ZM119.271 109.832C120.084 110.671 120.537 111.793 120.535 112.961C120.532 114.128 120.075 115.249 119.259 116.084C118.443 116.92 117.334 117.404 116.167 117.434C115 117.465 113.867 117.038 113.009 116.246L101.807 105.12L108.16 98.7057L119.271 109.832ZM106.184 96.7449L99.8459 103.083L96.0003 99.2681L96.5779 98.7968L97.2011 98.2801C97.5051 98.0368 97.7939 97.7785 98.0979 97.5049L98.5387 97.0945C99.096 96.5574 99.6432 96.0102 100.18 95.4529L100.591 95.0121C100.864 94.708 101.123 94.4192 101.366 94.1152L101.883 93.4921L102.354 92.9145L106.184 96.7449ZM100.834 90.3305C100.388 90.9384 99.932 91.5312 99.4659 92.1088L99.0403 92.5952C98.6147 93.0968 98.1739 93.5681 97.7331 94.0241C97.5355 94.2369 97.3379 94.4344 97.1251 94.632C96.6691 95.0728 96.1979 95.5136 95.6963 95.9393L95.2099 96.3649C94.6323 96.831 94.0395 97.287 93.4315 97.7328C86.9146 102.392 78.8839 104.43 70.9339 103.443C62.9838 102.456 55.6956 98.5153 50.5161 92.4038C45.3367 86.2922 42.6446 78.4565 42.9744 70.4522C43.3042 62.4479 46.6318 54.8602 52.2965 49.1955C57.9612 43.5308 65.5489 40.2032 73.5532 39.8734C81.5576 39.5436 89.3933 42.2356 95.5048 47.4151C101.616 52.5946 105.557 59.8828 106.544 67.8328C107.531 75.7829 105.493 83.8135 100.834 90.3305Z" fill="#EC411D"/>
</g>
</g>
</svg>
