<svg width="716" height="477" viewBox="0 0 716 477" fill="none" xmlns="http://www.w3.org/2000/svg">
<g clip-path="url(#clip0)">
<path d="M716 0H0V477H716V0Z" fill="#EAEAFF"/>
<path opacity="0.1" d="M556.022 27.633C481.978 27.633 421.962 87.5936 421.962 161.559C421.962 235.524 481.987 295.485 556.028 295.485C630.07 295.485 690.09 235.523 690.09 161.559C690.09 87.5947 630.065 27.633 556.022 27.633ZM556.022 262.861C500.014 262.861 454.612 217.505 454.612 161.556C454.612 105.608 500.014 60.2549 556.022 60.2549C612.029 60.2549 657.434 105.608 657.434 161.559C657.434 217.51 612.029 262.861 556.022 262.861Z" fill="#FFB147"/>
<path opacity="0.25" d="M556.021 262.861C612.03 262.861 657.433 217.506 657.433 161.557C657.433 105.608 612.03 60.2528 556.021 60.2528C500.013 60.2528 454.609 105.608 454.609 161.557C454.609 217.506 500.013 262.861 556.021 262.861Z" fill="#FFB147"/>
<path d="M582.385 266.393C552.432 250.445 496.528 265.241 480.235 296.158C463.305 282.733 439.185 282.867 421.046 298.626C407.793 310.139 398.222 334.326 409.521 352.734C401.745 343.367 391.115 342.521 379.077 344.389C373.048 345.391 367.372 347.904 362.58 351.692C357.787 355.481 354.036 360.423 351.675 366.054C340.548 348.581 315.76 341.392 296.999 350.202C278.238 359.011 267.961 382.662 274.326 402.369C260.395 387.773 236.712 383.571 218.602 392.484C200.492 401.397 189.389 422.705 192.485 442.645L191.411 541.827L613.213 533.192L582.385 266.393Z" fill="white"/>
<path d="M558.394 187.865L560.281 181.666C560.997 179.282 562.408 177.783 563.93 177.783H571.047C572.567 177.783 573.968 179.273 574.696 181.666L576.583 187.865H558.394Z" fill="#BF8535"/>
<path d="M593.295 143.247C584.882 143.247 578.037 135.445 578.037 125.859C578.037 116.274 584.882 108.469 593.295 108.469C601.708 108.469 608.553 116.271 608.553 125.859C608.553 135.447 601.708 143.247 593.295 143.247ZM593.295 110.877C586.209 110.877 580.445 117.598 580.445 125.859C580.445 134.12 586.211 140.841 593.295 140.841C600.379 140.841 606.145 134.12 606.145 125.859C606.145 117.598 600.378 110.877 593.295 110.877Z" fill="#FFB147"/>
<path d="M541.551 143.247C533.136 143.247 526.291 135.445 526.291 125.859C526.291 116.274 533.136 108.47 541.551 108.47C549.967 108.47 556.809 116.261 556.809 125.859C556.809 135.458 549.964 143.247 541.551 143.247ZM541.551 110.877C534.465 110.877 528.702 117.598 528.702 125.859C528.702 134.12 534.467 140.841 541.551 140.841C548.635 140.841 554.399 134.12 554.399 125.859C554.399 117.598 548.635 110.877 541.551 110.877Z" fill="#FFB147"/>
<path d="M561.611 163.499L564.337 180.372H570.633L573.359 163.499H561.611Z" fill="#BF8535"/>
<path d="M555.74 158.459L558.177 162.922C558.639 163.769 559.321 164.475 560.152 164.967C560.982 165.459 561.929 165.718 562.894 165.717H572.083C573.048 165.717 573.995 165.458 574.824 164.966C575.654 164.474 576.335 163.768 576.797 162.922L579.243 158.459H555.74Z" fill="#BF8535"/>
<path d="M583.084 186.573H551.891V209.646H583.084V186.573Z" fill="#1B1B43"/>
<path d="M537.082 98.8563L546.391 152.997C547.107 157.133 551.605 160.225 556.93 160.225H578.053C583.376 160.225 587.879 157.126 588.589 152.997L597.896 98.8563H537.082Z" fill="#FFB147"/>
<path opacity="0.6" d="M580.437 123.175C582.846 123.175 584.799 120.371 584.799 116.912C584.799 113.452 582.846 110.648 580.437 110.648C578.027 110.648 576.074 113.452 576.074 116.912C576.074 120.371 578.027 123.175 580.437 123.175Z" fill="white"/>
<path d="M184.279 103.602C183.779 102.642 183.617 101.543 183.819 100.48C184.022 99.4172 184.578 98.4539 185.397 97.7458C186.215 97.0377 187.249 96.6262 188.331 96.5778C189.413 96.5294 190.479 96.847 191.358 97.4792C191.166 96.5602 191.298 95.6031 191.73 94.7696C192.163 93.9362 192.87 93.2775 193.733 92.9047C194.596 92.532 195.56 92.4681 196.465 92.7238C197.369 92.9795 198.157 93.5392 198.696 94.3083C199.015 91.0091 200.299 87.8765 202.387 85.3007C204.475 82.7249 207.276 80.8197 210.44 79.8225C213.604 78.8252 216.992 78.7799 220.182 79.6922C223.372 80.6045 226.223 82.4341 228.379 84.9531C231.721 81.7372 238.064 82.7645 240.215 86.8606C241.183 86.144 242.324 85.6985 243.522 85.57C244.719 85.4414 245.93 85.6346 247.028 86.1295C248.126 86.6244 249.071 87.4031 249.767 88.3851C250.463 89.3672 250.884 90.5171 250.986 91.716C265.5 85.9223 281.6 91.0007 291.811 102.826L184.279 103.602Z" fill="white"/>
<path d="M491.609 136.542C489.063 130.195 482.086 125.928 475.27 126.545C474.346 119.083 466.024 114.374 458.506 114.718C450.989 115.061 444.186 119.057 437.742 122.943C433.8 119.854 427.259 121.035 424.63 125.287C419.155 120.585 409.94 121.172 405.105 126.526C399.322 125.84 393.381 130.162 392.263 135.872L491.609 136.542Z" fill="white"/>
<path d="M185.206 291.624H51.0894V493.799H185.206V291.624Z" fill="#006BA7"/>
<path d="M51.0881 493.772H-14.1172V314.254L51.0881 291.598V493.772Z" fill="#00448D"/>
<path d="M149.549 209.928L141.529 207.734L140.813 205.961L141.138 204.635C144.632 205.083 147.391 206.905 149.549 209.928Z" fill="#1B1B43"/>
<path d="M159.847 187.486C160.005 188.215 159.895 188.697 159.291 188.697C158.687 188.697 158.847 188.174 158.673 187.445C158.475 186.611 157.971 185.955 158.575 185.955C159.179 185.955 159.649 186.573 159.847 187.486Z" fill="#FFBC96"/>
<path d="M111.1 224.421C111.34 225.256 111.686 226.058 112.131 226.805C112.544 227.498 113.094 228.101 113.747 228.576C114.058 228.836 114.45 228.979 114.856 228.979C115.31 228.927 115.553 228.536 116.033 228.481C116.537 228.349 116.984 228.056 117.305 227.646L117.682 227.25C117.838 227.085 117.943 226.878 117.986 226.655C118.028 226.431 118.005 226.2 117.92 225.989C117.589 225.025 117.036 224.152 116.307 223.439C115.578 222.727 114.692 222.194 113.72 221.884L111.1 224.421Z" fill="#FFBC96"/>
<path d="M132.34 191.718C132.215 191.916 132.032 192.07 131.815 192.159C131.598 192.248 131.359 192.267 131.131 192.215C130.902 192.162 130.696 192.04 130.54 191.866C130.384 191.691 130.286 191.472 130.26 191.239C130.234 191.007 130.281 190.772 130.395 190.567C130.508 190.362 130.682 190.198 130.893 190.096C131.105 189.994 131.342 189.961 131.573 190C131.804 190.039 132.017 190.148 132.183 190.314C132.388 190.481 132.519 190.721 132.549 190.984C132.578 191.246 132.503 191.51 132.34 191.718Z" fill="#FFBC96"/>
<path d="M134.312 283.685C134.312 283.864 133.952 291.553 133.952 291.553L146.105 291.612L140.993 286.844L139.518 283.446L134.312 283.685Z" fill="#1B1B43"/>
<path d="M140.655 286.568L138.627 288.594L139.302 289.268L141.33 287.242L140.655 286.568Z" fill="white"/>
<path d="M139.461 229.428C144.542 243.303 143.678 264.315 141.291 284.659H133.494C132.833 262.87 130.737 242.543 125.699 225.215L139.461 229.428Z" fill="#151965"/>
<path d="M114.501 282.255C114.501 282.434 112.711 291.553 112.711 291.553L101.434 291.613L106.446 286.606L108.892 281.659L114.501 282.255Z" fill="#1B1B43"/>
<path d="M106.846 286.286L106.153 286.942L108.303 289.208L108.996 288.552L106.846 286.286Z" fill="white"/>
<path d="M106.763 283.547C112.014 264.631 115.964 243.775 119.016 226.485L132.859 226.805C130.016 247.785 123.563 266.381 115.355 283.864L106.763 283.547Z" fill="#151965"/>
<path d="M159.25 193.267L159.162 190.259C158.406 189.496 157.764 188.134 157.191 186.384L162.652 185.104C163.337 186.422 163.399 188.055 163.22 189.812L164.084 194.819L159.25 193.267Z" fill="#FFBC96"/>
<path d="M164.222 202.442C163.069 207.83 160.384 212.817 152.271 210.672L149.55 209.928L141.531 207.734L140.815 205.96L136.795 196.128C143.803 197.835 150.399 199.741 155.851 202.251L158.714 192.791L165.158 194.459C165.654 194.623 164.403 201.584 164.222 202.442Z" fill="#3AA9D7"/>
<path d="M179.477 183.418L163.133 186.46L159.734 187.088L158.627 187.298L157.586 187.488L151.18 188.68L143.2 190.168L142.78 188.021L150.418 185.513L177.97 176.463L179.477 183.418Z" fill="#FE5B52"/>
<path d="M159.25 192.941L163.561 191.632L163.98 194.149L159.25 192.941Z" fill="#1B1B43"/>
<path d="M144.632 232.248L138.188 231.652L136.794 196.129L141.291 206.025L144.632 232.248Z" fill="#1B1B43"/>
<path d="M136.797 196.128C139.091 207.46 139.592 218.496 139.46 229.429C134.451 230.199 129.338 229.956 124.424 228.714L128.243 195.727L132.221 196.766L136.797 196.128Z" fill="white"/>
<path d="M136.797 196.129C144.155 204.473 146.065 217.893 146.542 232.844L143.756 235.784C143.201 224.102 141.608 208.049 136.797 196.129Z" fill="#3AA9D7"/>
<path d="M128.255 195.726C133.177 210.173 130.457 223.224 125.938 235.943L114.64 233.4C117.465 224.708 119.685 216.141 119.652 208.049L128.255 195.726Z" fill="#3AA9D7"/>
<path d="M128.255 195.726L121.246 197.337C118.784 197.902 116.477 198.998 114.484 200.548L104.949 208.35C103.772 209.315 103.014 210.698 102.833 212.208C102.652 213.718 103.062 215.24 103.978 216.456L110.823 225.514L114.98 221.978L111.456 214.066L119.649 208.044L128.255 195.726Z" fill="#3AA9D7"/>
<path d="M119.651 208.049L122.277 205.705C122.675 207.877 121.482 211.983 119.334 213.612L119.651 208.049Z" fill="#1B1B43"/>
<path d="M123.042 232.403L122.623 232.164C126.225 225.606 129.306 214.76 128.093 205.274L125.334 201.698L127.792 197.032L128.215 197.253L125.9 201.647L128.549 205.073V205.138C129.811 214.763 126.692 225.763 123.042 232.403Z" fill="#1B1B43"/>
<path d="M129.816 193.685L129.775 195.552L128.255 195.726C131.232 198.074 134.108 198.474 136.799 196.129L135.248 195.969L135.088 192.452L129.598 191.997L129.816 193.685Z" fill="#FFBC96"/>
<path d="M131.267 193.208C132.033 194.877 133.434 196.207 135.245 195.99L135.159 193.878L131.267 193.208Z" fill="#1B1B43"/>
<path d="M136.338 189.672C136.816 191.976 137.072 194.579 135.304 194.739C133.713 194.881 130.033 193.983 130.092 190.445C130.072 189.636 130.36 188.849 130.897 188.244C131.434 187.638 132.18 187.257 132.987 187.179C135.305 186.99 135.974 187.903 136.338 189.672Z" fill="#FFBC96"/>
<path d="M137.393 190.466C137.687 190.876 137.054 191.499 136.458 191.659C136.023 191.775 135.642 191.11 135.642 190.605C135.642 190.099 135.611 189.334 136.061 189.353C136.511 189.373 136.995 189.911 137.393 190.466Z" fill="#FFBC96"/>
<path d="M131.763 191.737C131.26 191.778 130.788 191.997 130.431 192.354C130.075 192.71 129.857 193.182 129.816 193.685C127.27 191.682 126.448 189.632 129.1 187.467C129.1 187.467 129.677 183.214 134.351 184.745C135.761 185.281 136.358 185.937 138.129 185.42C137.274 188.936 135.054 189.286 132.441 188.421C132.16 188.714 131.969 189.08 131.887 189.477C131.806 189.874 131.839 190.286 131.983 190.665L131.763 191.737Z" fill="#1B1B43"/>
<path d="M179.608 183.338C180.379 183.162 180.649 181.469 180.212 179.556C179.774 177.644 178.794 176.236 178.023 176.413C177.252 176.589 176.982 178.282 177.42 180.194C177.857 182.107 178.837 183.514 179.608 183.338Z" fill="#1B1B43"/>
<path d="M151.181 188.68L143.2 190.168L142.781 188.021L150.418 185.513L151.181 188.68Z" fill="#1B1B43"/>
<path d="M656.957 485.066H725.783V228.801L656.957 209.852V485.066Z" fill="#00448D"/>
<path d="M509.362 484.844H657.064V209.63H509.362V484.844Z" fill="#006BA7"/>
<path d="M289.992 503.204C284.221 482.028 293.98 457.603 312.761 446.223C331.541 434.844 357.733 437.457 373.881 452.341C377.876 433.685 391.828 417.466 409.681 410.71C427.533 403.953 448.75 406.878 464.113 418.212C466.443 412.042 470.117 406.467 474.87 401.89C479.623 397.313 485.335 393.85 491.593 391.75C497.85 389.651 504.497 388.968 511.052 389.751C517.607 390.534 523.905 392.764 529.491 396.278C528.116 377.725 534.372 356.702 552.554 348.188C573.951 338.175 593.812 344.109 611.825 356.704C640.646 303.624 719.9 311.72 734.311 344.109L753.233 523.15L298.421 545.641L289.992 503.204Z" fill="#EAEAFF"/>
<path d="M433.555 498.436C424.502 490.778 422.543 476.047 429.278 466.293C436.013 456.539 450.493 453.137 460.865 458.858C462.589 453.18 465.66 448.003 469.817 443.765C473.974 439.528 479.094 436.356 484.741 434.52C490.388 432.683 496.396 432.237 502.254 433.218C508.111 434.199 513.645 436.578 518.384 440.154C518.642 427.161 529.205 415.121 542.069 413.18C554.933 411.24 568.594 419.589 572.702 431.92C580.189 420.654 598.543 418.945 607.986 428.639C605.874 415.395 612.406 401.184 623.838 394.155C635.27 387.127 650.915 387.704 661.787 395.552C679.157 384.185 702.654 382.881 721.177 392.26C739.699 401.639 752.538 421.347 753.635 442.054L775.915 535.663L444.638 542.542L433.555 498.436Z" fill="white"/>
</g>
<defs>
<clipPath id="clip0">
<rect width="716" height="477" rx="34" fill="white"/>
</clipPath>
</defs>
</svg>
