<svg width="152" height="152" viewBox="0 0 152 152" fill="none" xmlns="http://www.w3.org/2000/svg">
<g id="website dev">
<path id="Ellipse 92" d="M75.9998 151.24C117.554 151.24 151.24 117.554 151.24 76C151.24 34.4461 117.554 0.76001 75.9998 0.76001C34.4459 0.76001 0.759766 34.4461 0.759766 76C0.759766 117.554 34.4459 151.24 75.9998 151.24Z" fill="#F1C1E9"/>
<path id="Path 1276" d="M76 1.52C90.7308 1.52 105.131 5.88818 117.379 14.0721C129.627 22.2561 139.173 33.8883 144.811 47.4977C150.448 61.1072 151.923 76.0826 149.049 90.5303C146.175 104.978 139.082 118.249 128.665 128.665C118.249 139.082 104.978 146.175 90.5304 149.049C76.0827 151.923 61.1072 150.448 47.4978 144.811C33.8883 139.173 22.2561 129.627 14.0722 117.379C5.88821 105.131 1.52003 90.7308 1.52003 76C1.52003 56.2467 9.36701 37.3024 23.3347 23.3347C37.3024 9.36698 56.2467 1.52 76 1.52ZM76 0C60.9687 0 46.2748 4.45732 33.7767 12.8083C21.2786 21.1593 11.5374 33.0289 5.78519 46.9161C0.0329295 60.8032 -1.47212 76.0843 1.46035 90.8269C4.39283 105.569 11.6311 119.111 22.2599 129.74C32.8887 140.369 46.4306 147.607 61.1732 150.54C75.9157 153.472 91.1968 151.967 105.084 146.215C118.971 140.463 130.841 130.721 139.192 118.223C147.543 105.725 152 91.0314 152 76C152 55.8435 143.993 36.5126 129.74 22.2599C115.487 8.00712 96.1565 0 76 0V0Z" fill="#F1C1E9"/>
<path id="Path 1277" d="M66.8803 93.3888C66.5408 93.3791 66.2144 93.2561 65.953 93.0392L56.7419 85.2112C56.5836 85.0763 56.4568 84.9085 56.3702 84.7194C56.2835 84.5304 56.2392 84.3248 56.2403 84.1168C56.247 83.9124 56.2949 83.7115 56.381 83.5261C56.4672 83.3407 56.59 83.1745 56.7419 83.0376L65.953 75.1944C66.2449 74.9872 66.604 74.8971 66.9591 74.9419C67.3143 74.9868 67.6397 75.1633 67.8709 75.4365C68.1021 75.7098 68.2224 76.0599 68.2078 76.4176C68.1932 76.7753 68.0449 77.1145 67.7922 77.368L59.8579 84.1168L67.7922 90.8808C68.0793 91.1255 68.258 91.4737 68.2893 91.8496C68.3206 92.2254 68.202 92.5984 67.9594 92.8872C67.8226 93.0391 67.6564 93.1618 67.471 93.248C67.2855 93.3342 67.0846 93.3821 66.8803 93.3888Z" fill="#7E1D6F"/>
<path id="Path 1278" d="M85.1199 93.3888C84.9155 93.3821 84.7146 93.3342 84.5292 93.248C84.3438 93.1618 84.1776 93.0391 84.0407 92.8872C83.9178 92.746 83.8242 92.5818 83.7652 92.4042C83.7063 92.2265 83.6832 92.0389 83.6973 91.8522C83.7115 91.6656 83.7625 91.4836 83.8476 91.3168C83.9326 91.1501 84.0499 91.0019 84.1927 90.8808L92.1271 84.1168L84.1775 77.368C84.031 77.2474 83.91 77.0989 83.8215 76.931C83.7331 76.7631 83.6789 76.5793 83.6623 76.3903C83.6456 76.2013 83.6668 76.0108 83.7245 75.8301C83.7822 75.6493 83.8754 75.4819 83.9986 75.3375C84.1217 75.1932 84.2724 75.0748 84.4418 74.9893C84.6112 74.9038 84.796 74.8529 84.9852 74.8396C85.1745 74.8263 85.3646 74.8508 85.5443 74.9117C85.724 74.9726 85.8898 75.0687 86.0319 75.1944L95.1519 83.0376C95.3091 83.1718 95.4353 83.3384 95.5218 83.526C95.6083 83.7136 95.6532 83.9178 95.6532 84.1244C95.6532 84.331 95.6083 84.5352 95.5218 84.7228C95.4353 84.9105 95.3091 85.0771 95.1519 85.2112L86.0319 93.0392C85.7747 93.2529 85.4541 93.3758 85.1199 93.3888Z" fill="#7E1D6F"/>
<path id="Path 1279" d="M72.7623 99.256C72.6615 99.271 72.559 99.271 72.4583 99.256C72.0978 99.1594 71.7895 98.9256 71.5992 98.6047C71.4089 98.2837 71.3517 97.901 71.4399 97.5384L77.1855 70.3C77.2928 69.9618 77.5222 69.6756 77.829 69.4971C78.1358 69.3187 78.498 69.2609 78.8451 69.3349C79.1922 69.4088 79.4994 69.6093 79.7068 69.8973C79.9142 70.1853 80.0069 70.5402 79.9671 70.8928L74.1455 98.1312C74.0791 98.449 73.9054 98.7343 73.6535 98.9392C73.4016 99.144 73.0869 99.2559 72.7623 99.256Z" fill="#7E1D6F"/>
<path id="Path 1280" d="M109.516 114H42.4534C39.9203 114 37.4908 112.995 35.6982 111.205C33.9057 109.415 32.8966 106.987 32.8926 104.454V47.5456C32.8966 45.0126 33.9057 42.5846 35.6982 40.7949C37.4908 39.0052 39.9203 38 42.4534 38H109.516C112.047 38 114.475 39.0057 116.266 40.7958C118.056 42.586 119.061 45.014 119.061 47.5456V104.454C119.061 106.986 118.056 109.414 116.266 111.204C114.475 112.994 112.047 114 109.516 114ZM35.7502 47.5456V104.454C35.7502 106.232 36.4564 107.937 37.7135 109.194C38.9706 110.451 40.6756 111.158 42.4534 111.158H109.516C111.292 111.154 112.995 110.446 114.251 109.19C115.507 107.934 116.215 106.231 116.219 104.454V47.5456C116.215 45.769 115.507 44.0664 114.251 42.8102C112.995 41.5539 111.292 40.8464 109.516 40.8424H42.4534C40.6756 40.8424 38.9706 41.5486 37.7135 42.8057C36.4564 44.0628 35.7502 45.7678 35.7502 47.5456Z" fill="#7E1D6F"/>
<path id="Path 1281" d="M117.678 60.8H34.3975C34.0739 60.7935 33.7607 60.6838 33.5037 60.487C33.2467 60.2901 33.0593 60.0164 32.9687 59.7056C32.9206 59.4958 32.9206 59.2778 32.9685 59.068C33.0165 58.8582 33.1113 58.6619 33.2457 58.4938C33.3802 58.3257 33.5509 58.1902 33.7451 58.0974C33.9392 58.0045 34.1519 57.9567 34.3671 57.9576H117.618C117.977 57.9517 118.328 58.0738 118.606 58.302C118.884 58.5303 119.073 58.8499 119.138 59.204C119.162 59.4078 119.142 59.6143 119.079 59.8096C119.016 60.005 118.912 60.1844 118.773 60.3359C118.635 60.4873 118.465 60.6071 118.276 60.6872C118.087 60.7673 117.883 60.8058 117.678 60.8Z" fill="#7E1D6F"/>
<path id="Path 1282" d="M57.2431 54.0512C56.3412 54.0512 55.4596 53.7838 54.7097 53.2827C53.9598 52.7817 53.3754 52.0695 53.0302 51.2363C52.6851 50.403 52.5948 49.4862 52.7707 48.6016C52.9467 47.7171 53.381 46.9045 54.0187 46.2668C54.6564 45.6291 55.4689 45.1948 56.3535 45.0188C57.2381 44.8429 58.1549 44.9332 58.9881 45.2783C59.8214 45.6235 60.5335 46.2079 61.0346 46.9578C61.5357 47.7077 61.8031 48.5893 61.8031 49.4912C61.8031 50.7006 61.3227 51.8605 60.4675 52.7156C59.6123 53.5708 58.4525 54.0512 57.2431 54.0512ZM57.2431 47.8952C56.9154 47.8952 56.5951 47.9924 56.3226 48.1744C56.0502 48.3565 55.8378 48.6152 55.7124 48.918C55.587 49.2207 55.5542 49.5539 55.6181 49.8752C55.6821 50.1966 55.8399 50.4918 56.0716 50.7236C56.3033 50.9553 56.5985 51.1131 56.9199 51.177C57.2413 51.2409 57.5744 51.2081 57.8771 51.0827C58.1799 50.9573 58.4386 50.7449 58.6207 50.4725C58.8027 50.2 58.8999 49.8797 58.8999 49.552C58.8999 49.1126 58.7254 48.6912 58.4146 48.3805C58.1039 48.0698 57.6825 47.8952 57.2431 47.8952Z" fill="#7E1D6F"/>
<path id="Path 1283" d="M43.4111 54.0056C42.5092 54.0056 41.6276 53.7382 40.8777 53.2371C40.1278 52.7361 39.5433 52.0239 39.1982 51.1907C38.8531 50.3574 38.7627 49.4406 38.9387 48.556C39.1146 47.6715 39.5489 46.8589 40.1867 46.2212C40.8244 45.5835 41.6369 45.1492 42.5215 44.9732C43.406 44.7973 44.3229 44.8876 45.1561 45.2327C45.9893 45.5779 46.7015 46.1623 47.2026 46.9122C47.7036 47.6621 47.9711 48.5437 47.9711 49.4456C47.9711 50.655 47.4907 51.8149 46.6355 52.67C45.7803 53.5252 44.6205 54.0056 43.4111 54.0056ZM43.4111 47.8496C43.0834 47.8496 42.7631 47.9468 42.4906 48.1288C42.2181 48.3109 42.0058 48.5696 41.8804 48.8724C41.755 49.1751 41.7222 49.5083 41.7861 49.8296C41.85 50.151 42.0078 50.4463 42.2395 50.678C42.4713 50.9097 42.7665 51.0675 43.0879 51.1314C43.4092 51.1953 43.7424 51.1625 44.0451 51.0371C44.3478 50.9117 44.6066 50.6993 44.7887 50.4269C44.9707 50.1544 45.0679 49.8341 45.0679 49.5064C45.0679 49.067 44.8933 48.6456 44.5826 48.3349C44.2719 48.0242 43.8505 47.8496 43.4111 47.8496Z" fill="#7E1D6F"/>
<path id="Path 1284" d="M71.0751 54.0968C70.1733 54.0968 69.2916 53.8294 68.5417 53.3283C67.7918 52.8272 67.2074 52.1151 66.8622 51.2818C66.5171 50.4486 66.4268 49.5318 66.6028 48.6472C66.7787 47.7626 67.213 46.9501 67.8507 46.3124C68.4885 45.6747 69.301 45.2404 70.1855 45.0644C71.0701 44.8885 71.9869 44.9788 72.8202 45.3239C73.6534 45.6691 74.3656 46.2535 74.8666 47.0034C75.3677 47.7533 75.6351 48.6349 75.6351 49.5368C75.6351 50.7462 75.1547 51.906 74.2995 52.7612C73.4444 53.6164 72.2845 54.0968 71.0751 54.0968ZM71.0751 47.9408C70.7474 47.9408 70.4271 48.038 70.1547 48.22C69.8822 48.4021 69.6699 48.6608 69.5445 48.9636C69.4191 49.2663 69.3862 49.5994 69.4502 49.9208C69.5141 50.2422 69.6719 50.5374 69.9036 50.7691C70.1353 51.0008 70.4305 51.1586 70.7519 51.2226C71.0733 51.2865 71.4064 51.2537 71.7092 51.1283C72.0119 51.0029 72.2707 50.7905 72.4527 50.5181C72.6348 50.2456 72.7319 49.9253 72.7319 49.5976C72.7319 49.38 72.6891 49.1646 72.6058 48.9636C72.5226 48.7626 72.4005 48.5799 72.2467 48.4261C72.0928 48.2722 71.9102 48.1502 71.7092 48.0669C71.5082 47.9837 71.2927 47.9408 71.0751 47.9408Z" fill="#7E1D6F"/>
</g>
</svg>
